<svg width="39" height="38" viewBox="0 0 39 38" fill="none" xmlns="http://www.w3.org/2000/svg">
<path d="M24.2265 35.1397L24.2456 35.1531C25.8984 36.2055 27.8608 36.6624 29.8085 36.4485C31.7562 36.2346 33.5726 35.3627 34.9576 33.9767L36.1608 32.7735C36.4274 32.507 36.6389 32.1907 36.7832 31.8424C36.9275 31.4942 37.0018 31.1209 37.0018 30.744C37.0018 30.367 36.9275 29.9938 36.7832 29.6455C36.6389 29.2973 36.4274 28.9809 36.1608 28.7144L31.086 23.6435C30.8195 23.3768 30.5031 23.1653 30.1549 23.021C29.8067 22.8767 29.4334 22.8024 29.0565 22.8024C28.6795 22.8024 28.3062 22.8767 27.958 23.021C27.6098 23.1653 27.2934 23.3768 27.0269 23.6435C26.4889 24.1814 25.7592 24.4836 24.9984 24.4836C24.2375 24.4836 23.5078 24.1814 22.9698 23.6435L14.8555 15.5273C14.3176 14.9892 14.0154 14.2595 14.0154 13.4987C14.0154 12.7379 14.3176 12.0082 14.8555 11.4701C15.1221 11.2036 15.3336 10.8873 15.4779 10.539C15.6222 10.1908 15.6965 9.81753 15.6965 9.44058C15.6965 9.06362 15.6222 8.69037 15.4779 8.34213C15.3336 7.99389 15.1221 7.6775 14.8555 7.41104L9.7826 2.34008C9.24453 1.80218 8.51485 1.5 7.75402 1.5C6.99319 1.5 6.26351 1.80218 5.72545 2.34008L4.52035 3.54327C3.13467 4.92851 2.26304 6.74505 2.04949 8.69272C1.83594 10.6404 2.29325 12.6026 3.34586 14.2552L3.35734 14.2743C8.91643 22.4992 16.0007 29.5821 24.2265 35.1397V35.1397Z" stroke="#1E1E1E" stroke-width="2" stroke-linecap="round" stroke-linejoin="round"/>
</svg>
